<svg xmlns="http://www.w3.org/2000/svg" xmlns:xlink="http://www.w3.org/1999/xlink" viewBox="0 0 160.77 18.46"><defs><style>.cls-1{fill:#231f20;}.cls-2{fill:url(#linear-gradient);}</style><linearGradient id="linear-gradient" x1="151.94" y1="4.15" x2="159.12" y2="4.15" gradientTransform="matrix(1, 0, 0, -1, 0, 20.46)" gradientUnits="userSpaceOnUse"><stop offset="0.2" stop-color="#9871b2"/><stop offset="0.56" stop-color="#f15f6a"/><stop offset="0.83" stop-color="#f68a5a"/><stop offset="1" stop-color="#faa74f"/></linearGradient></defs><g id="Layer_2" data-name="Layer 2"><g id="Layer_1-2" data-name="Layer 1"><path class="cls-1" d="M16.56.29,10.94,18.17H5.62L0,.29H4.18l4.1,13.85L12.38.29Z"/><path class="cls-1" d="M29.16,12.62H19.94a3,3,0,0,0,3.17,2.72,3,3,0,0,0,2.71-1.44l2.89,1.37c-.8,1.92-3,3.19-5.65,3.19a6.64,6.64,0,0,1-6.86-6.87,6.57,6.57,0,0,1,6.62-6.81,6.39,6.39,0,0,1,6.51,6.45A4.63,4.63,0,0,1,29.16,12.62ZM25.51,10a2.54,2.54,0,0,0-2.69-2.32A2.75,2.75,0,0,0,20,10Z"/><path class="cls-1" d="M42.77,9.74v8.43h-3.6V10.51a2.4,2.4,0,1,0-4.8,0v7.66h-3.6V5.06h3.36V6.65A3.86,3.86,0,0,1,37.8,4.78,4.71,4.71,0,0,1,42.77,9.74Z"/><path class="cls-1" d="M46.22,13.44V8.18H44V5.06h.17a1.83,1.83,0,0,0,2.08-2V1.13h3.6V5.06H52.9V8.18H49.82v5.26c0,1.34.72,2,2.24,2a6,6,0,0,0,.84-.07v2.83a11.16,11.16,0,0,1-1.68.12C48.05,18.31,46.22,16.51,46.22,13.44Z"/><path class="cls-1" d="M54.58.29h3.6v3.6h-3.6Zm0,4.77h3.6V18.17h-3.6Z"/><path class="cls-1" d="M59.86,11.59a6.71,6.71,0,0,1,6.93-6.81,6.17,6.17,0,0,1,6.12,4L69.84,10.3a3.08,3.08,0,0,0-3-2.28c-1.89,0-3.21,1.48-3.21,3.6s1.32,3.6,3.21,3.6a3.08,3.08,0,0,0,3-2.28l3.07,1.51a6.2,6.2,0,0,1-6.12,4A6.76,6.76,0,0,1,59.86,11.59Z"/><path class="cls-1" d="M78.07,13.44,81.19,12a4.94,4.94,0,0,0,4.44,3.24c1.83,0,2.91-.84,2.91-1.9s-.65-1.44-1.71-1.78l-3.65-1.15c-3.05-1-4.49-2.69-4.49-5.06C78.69,2.14,81.26,0,85.13,0a7.28,7.28,0,0,1,7.08,4.54L89.09,6a4,4,0,0,0-4-2.76c-1.63,0-2.71.84-2.71,1.94C82.42,6,83,6.65,84.19,7l3.55,1.1c3,.94,4.52,2.55,4.52,5,0,3.22-2.64,5.36-6.63,5.36A7.69,7.69,0,0,1,78.07,13.44Z"/><path class="cls-1" d="M95.47,13.44V8.18H93.21V5.06h.17a1.83,1.83,0,0,0,2.09-2V1.13h3.6V5.06h3.07V8.18H99.07v5.26c0,1.34.72,2,2.23,2a5.77,5.77,0,0,0,.84-.07v2.83a11.06,11.06,0,0,1-1.68.12C97.29,18.31,95.47,16.51,95.47,13.44Z"/><path class="cls-1" d="M115.58,5.06V18.17h-3.36V16.59a3.87,3.87,0,0,1-3.6,1.87c-3,0-5-2.21-5-5.43v-8h3.6v7.66a2.4,2.4,0,1,0,4.8,0V5.06Z"/><path class="cls-1" d="M131.28.29V18.17h-3.36V16.92a5.36,5.36,0,0,1-4,1.54,6.66,6.66,0,0,1-6.67-6.84,6.68,6.68,0,0,1,6.65-6.84,5.23,5.23,0,0,1,3.77,1.39V.29Zm-3.6,11.33A3.32,3.32,0,0,0,124.37,8a3.38,3.38,0,0,0-3.39,3.6,3.37,3.37,0,0,0,3.39,3.6A3.31,3.31,0,0,0,127.68,11.62Z"/><path class="cls-1" d="M133.68.29h3.6v3.6h-3.6Zm0,4.77h3.6V18.17h-3.6Z"/><path class="cls-1" d="M139,11.62a7,7,0,1,1,7,6.84A6.8,6.8,0,0,1,139,11.62Zm10.3,0a3.3,3.3,0,1,0-6.58,0,3.3,3.3,0,1,0,6.58,0Z"/><path class="cls-2" d="M154.17,18.17V14.44h3.73v3.73Z"/><text/></g></g></svg>