<svg id="Layer_1" data-name="Layer 1" xmlns="http://www.w3.org/2000/svg" viewBox="0 0 860.12 551.74"><defs><style>.cls-1{fill:#e6e6e6;}.cls-2{fill:#fff;}.cls-3{fill:#f2f2f2;}.cls-4{fill:#cacaca;}.cls-5{fill:#3f3d56;}.cls-6{fill:#ccc;}.cls-7{opacity:0.2;isolation:isolate;}.cls-8{fill:#2f2e41;}.cls-9{fill:#ffb6b6;}</style></defs><path class="cls-1" d="M804,487.5H586.65a29.85,29.85,0,0,1-29.82-29.83V114.83A29.84,29.84,0,0,1,586.65,85H804a29.85,29.85,0,0,1,29.83,29.82V457.67A29.86,29.86,0,0,1,804,487.5Z" transform="translate(-0.01)"/><path class="cls-2" d="M807.6,102.8H586.24a9.35,9.35,0,0,0-9.33,9.34V459.45a9.34,9.34,0,0,0,9.33,9.34H807.6a9.34,9.34,0,0,0,9.34-9.34V112.14A9.35,9.35,0,0,0,807.6,102.8Z" transform="translate(-0.01)"/><path class="cls-1" d="M592,85a2.31,2.31,0,0,1,2.29-2.29h15.51a2.29,2.29,0,1,1,0,4.57H594.25A2.29,2.29,0,0,1,592,85Z" transform="translate(-0.01)"/><path class="cls-1" d="M617.52,85a2.29,2.29,0,0,1,2.28-2.29h15.52a2.29,2.29,0,0,1,0,4.57H619.8A2.28,2.28,0,0,1,617.52,85Z" transform="translate(-0.01)"/><path class="cls-1" d="M770.85,85a2.29,2.29,0,0,1,2.28-2.29h15.52a2.29,2.29,0,0,1,0,4.57H773.13A2.28,2.28,0,0,1,770.85,85Z" transform="translate(-0.01)"/><path class="cls-3" d="M727.6,461.63c0,2.4-.05,4.8-.16,7.16H586.24a9.34,9.34,0,0,1-9.33-9.34V284.64A179.28,179.28,0,0,1,727.6,461.63Z" transform="translate(-0.01)"/><rect x="665.8" y="192.06" width="61.34" height="14.09" rx="4.34"/><rect class="cls-1" x="632.33" y="220.24" width="128.28" height="14.09" rx="4.34"/><rect class="cls-1" x="632.33" y="248.43" width="128.28" height="14.09" rx="4.34"/><path class="cls-4" d="M796.54,133.47H597.31a1.65,1.65,0,0,1,0-3.3H796.54a1.65,1.65,0,0,1,0,3.3Z" transform="translate(-0.01)"/><ellipse class="cls-5" cx="607.93" cy="120.45" rx="4.85" ry="4.95"/><ellipse class="cls-5" cx="624.67" cy="120.45" rx="4.85" ry="4.95"/><ellipse class="cls-5" cx="641.41" cy="120.45" rx="4.85" ry="4.95"/><path class="cls-5" d="M788.75,117.41H777.91a.82.82,0,0,0-.81.83.83.83,0,0,0,.81.81h10.84a.82.82,0,0,0,0-1.64Z" transform="translate(-0.01)"/><path class="cls-5" d="M788.75,120.49H777.91a.82.82,0,0,0,0,1.64h10.84a.82.82,0,0,0,0-1.64Z" transform="translate(-0.01)"/><path class="cls-5" d="M788.75,123.57H777.91a.82.82,0,0,0-.81.83.83.83,0,0,0,.81.81h10.84a.82.82,0,0,0,0-1.64Z" transform="translate(-0.01)"/><path class="cls-1" d="M465.5,284.77H350a6.16,6.16,0,0,0-6.16,6.17V473.41H471.67V290.94a6.17,6.17,0,0,0-6.17-6.17ZM408.13,388.45a13.72,13.72,0,0,1-13.64-13.64V353.76a13.64,13.64,0,0,1,27.28,0v21.05a13.71,13.71,0,0,1-13.64,13.64Z" transform="translate(-0.01)"/><path class="cls-6" d="M343.44,467.57v17.61a3.44,3.44,0,0,0,3.44,3.44H468.62a3.46,3.46,0,0,0,3.44-3.44V467.57Z" transform="translate(-0.01)"/><path class="cls-1" d="M656.77,0H163a16,16,0,0,0-16,16V349.19a16,16,0,0,0,16,16H656.77a16,16,0,0,0,16-16V16A16,16,0,0,0,656.77,0Z" transform="translate(-0.01)"/><path class="cls-2" d="M652.65,11.56H167.14a8.58,8.58,0,0,0-8.56,8.57V345.07a8.58,8.58,0,0,0,8.56,8.56H652.65a8.58,8.58,0,0,0,8.56-8.56V20.13A8.58,8.58,0,0,0,652.65,11.56Z" transform="translate(-0.01)"/><path d="M661.21,20.13V345.07a8.58,8.58,0,0,1-8.56,8.56H481.45A210.22,210.22,0,0,1,435.61,292c-.74-1.5-1.46-3-2.13-4.54A208.18,208.18,0,0,1,415,216.19c-.12-1.51-.23-3-.3-4.55q-.35-5.88-.34-11.87a209.4,209.4,0,0,1,14.75-77.42c.59-1.53,1.21-3,1.85-4.55A210.64,210.64,0,0,1,531.2,11.56H652.65A8.58,8.58,0,0,1,661.21,20.13Z" transform="translate(-0.01)"/><path class="cls-4" d="M628.25,56.33H174a1.81,1.81,0,0,1,0-3.62h454.3a1.81,1.81,0,0,1,0,3.62Z" transform="translate(-0.01)"/><ellipse class="cls-5" cx="204.87" cy="32.67" rx="10.59" ry="10.82"/><ellipse class="cls-5" cx="241.45" cy="32.67" rx="10.59" ry="10.82"/><ellipse class="cls-5" cx="278.02" cy="32.67" rx="10.59" ry="10.82"/><path class="cls-2" d="M606.22,24.53h-26a2,2,0,0,0,0,3.93h26a2,2,0,0,0,0-3.93Z" transform="translate(-0.01)"/><path class="cls-2" d="M606.22,31.91h-26a2,2,0,0,0,0,3.93h26a2,2,0,0,0,0-3.93Z" transform="translate(-0.01)"/><path class="cls-2" d="M606.22,39.28h-26a2,2,0,0,0,0,3.94h26a2,2,0,0,0,0-3.94Z" transform="translate(-0.01)"/><rect x="245.18" y="161.87" width="72.21" height="15.44" rx="4.34"/><rect class="cls-1" x="208.51" y="192.75" width="145.55" height="15.44" rx="4.34"/><rect class="cls-1" x="208.51" y="223.63" width="145.55" height="15.44" rx="4.34"/><path d="M220.39,335a53.13,53.13,0,0,1-3.34,18.63H167.14a8.58,8.58,0,0,1-8.56-8.56V282.29A53.38,53.38,0,0,1,220.39,335Z" transform="translate(-0.01)"/><path class="cls-7" d="M661.65,122.35V117.8H585.31V65h-4.54V117.8H493.26V65h-4.53V117.8h-57.8c-.64,1.51-1.26,3-1.85,4.55h59.65v89.29H414.67c.07,1.53.18,3,.3,4.55h73.76v71.23H433.48c.67,1.53,1.39,3,2.13,4.54h53.12v59.87h4.53V292h87.51v59.87h4.54V292h76.34v-4.54H585.31a71.22,71.22,0,0,1,71.22-71.23h5.12v-4.55H585.31V122.35ZM580.77,287.42H493.26V216.19h87.51Zm0-75.78H493.26v-1.78a87.51,87.51,0,0,1,87.51-87.51h0Z" transform="translate(-0.01)"/><path class="cls-1" d="M264,231.61h0V180.87a29.37,29.37,0,0,0-29.37-29.37H127.1a29.37,29.37,0,0,0-29.37,29.37h0V459.25a29.37,29.37,0,0,0,29.37,29.37H234.61A29.37,29.37,0,0,0,264,459.25V267.73h0a1.85,1.85,0,0,0,1.85-1.85V233.46A1.85,1.85,0,0,0,264,231.61Z" transform="translate(-0.01)"/><path class="cls-2" d="M257.73,181.07v278A21.92,21.92,0,0,1,236,481H127.77a21.93,21.93,0,0,1-21.93-21.93v-278a21.93,21.93,0,0,1,21.93-21.93h13.11a10.42,10.42,0,0,0,9.65,14.36h61.59a10.45,10.45,0,0,0,9.64-14.36h14A21.93,21.93,0,0,1,257.73,181.07Z" transform="translate(-0.01)"/><path class="cls-3" d="M236.31,472.4q0,4.32-.27,8.57H127.77a21.93,21.93,0,0,1-21.93-21.93V335.17A137.4,137.4,0,0,1,236.31,472.4Z" transform="translate(-0.01)"/><path class="cls-1" d="M98.33,260a2.5,2.5,0,0,1-2.5-2.5v-17a2.5,2.5,0,0,1,5,0v17A2.51,2.51,0,0,1,98.33,260Z" transform="translate(-0.01)"/><rect x="164.17" y="246.43" width="35.21" height="15.44" rx="4.34"/><rect class="cls-1" x="127.5" y="277.31" width="108.55" height="15.44" rx="4.34"/><rect class="cls-1" x="127.5" y="308.19" width="108.55" height="15.44" rx="4.34"/><path class="cls-1" d="M97.83,227a2.5,2.5,0,0,1-2.5-2.5v-17a2.5,2.5,0,0,1,5,0v17A2.51,2.51,0,0,1,97.83,227Z" transform="translate(-0.01)"/><path class="cls-2" d="M164.33,162a2.5,2.5,0,0,1,2.5-2.5h17a2.5,2.5,0,1,1,0,5h-17A2.5,2.5,0,0,1,164.33,162Z" transform="translate(-0.01)"/><path class="cls-1" d="M98.33,289a2.5,2.5,0,0,1-2.5-2.5v-17a2.5,2.5,0,0,1,5,0v17A2.51,2.51,0,0,1,98.33,289Z" transform="translate(-0.01)"/><circle class="cls-2" cx="193.32" cy="162" r="2.5"/><path class="cls-4" d="M858.94,488.61l-857.75.31a1.19,1.19,0,0,1,0-2.38l857.75-.31a1.19,1.19,0,1,1,0,2.38Z" transform="translate(-0.01)"/><path class="cls-8" d="M366.77,226.11l-4.51,1a25.86,25.86,0,0,0-.7-5.6,16.81,16.81,0,0,1-2.54,6.3l-25.88,5.52L308.3,207.07c0-13.11,7.24-23.07,20.29-23.07.79,0,1.61,0,2.43.12a27.59,27.59,0,0,1,31.6,21.69C371.87,214.92,368.52,220.28,366.77,226.11Z" transform="translate(-0.01)"/><polygon class="cls-9" points="379.49 532.71 388.88 532.71 393.34 496.51 379.49 496.51 379.49 532.71"/><path class="cls-8" d="M377.17,528.08,392,527.2v6.35l14.11,9.74a4,4,0,0,1-2.25,7.24H386.19l-3-6.28L382,550.53H375.3Z" transform="translate(-0.01)"/><polygon class="cls-9" points="269.52 522.49 277.69 527.13 299.44 497.84 287.39 491 269.52 522.49"/><path class="cls-8" d="M269.79,517.32l13.34,6.55L280,529.4l7.46,15.43a4,4,0,0,1-5.54,5.19l-15.36-8.72.45-7-4.13,4.88-5.8-3.29Z" transform="translate(-0.01)"/><path class="cls-9" d="M414.19,232.45a8.32,8.32,0,0,0-7,9.42,8.63,8.63,0,0,0,.34,1.42l-14.36,12.43,5.42,10.58,20-17.85a8.36,8.36,0,0,0-4.4-16Z" transform="translate(-0.01)"/><path class="cls-8" d="M399.73,275.2c-4.8,7.26-15.53,14.26-31.47,20.48a6.88,6.88,0,0,1-5.5-.18c-6-2.74-9.87-12.92-10.23-13.9l-11.65-15.71c-.2-.23-5.65-6.42-5-12.49a8.87,8.87,0,0,1,3.83-6.36c8.81-6.54,28.58,16.16,31.14,19.18l12.9-7.86,9.39-4.19,7.59-9.23,10.68,10.92-9.61,15.28A18.61,18.61,0,0,1,399.73,275.2Z" transform="translate(-0.01)"/><path class="cls-8" d="M366.23,303s27.6,44,22.6,49-12.78,6.31-12.78,6.31L358.83,336Z" transform="translate(-0.01)"/><path class="cls-8" d="M341.83,243l13,8.8a33.56,33.56,0,0,1,13.08,38.28l-3.67,11.13Z" transform="translate(-0.01)"/><polygon class="cls-8" points="318.82 363 317.08 369.06 311.15 442.1 281.5 497.35 295.65 507.45 336.08 454.9 352.07 402.72 377.18 518.24 396.04 516.89 382.94 356.72 358.08 311.64 318.82 363"/><path d="M339.61,245.21,357.72,260a24.63,24.63,0,0,1,8.18,12.6h0a24.38,24.38,0,0,1,.87,6.9l-.54,32.13L382.83,356s-45,17-51,2S339.61,245.21,339.61,245.21Z" transform="translate(-0.01)"/><path class="cls-8" d="M345,365.79c-22.48,0-28,.17-28.31.09l-.36-.07V352.29L321.83,328c-.64-7.54-2.14-17.49-2-26,.49-30.78-1-60.84-1-60.84l11.9-11,5.41,3.52,10,10c11.66,28.69,20.91,55.69,21,57.42l.74,29.86-3,12C351.25,352.58,363.66,365.79,345,365.79Z" transform="translate(-0.01)"/><polygon class="cls-7" points="323.84 267.97 321.11 285.03 339.61 292.66 323.84 267.97"/><circle class="cls-9" cx="342.48" cy="208.87" r="18.11"/><path class="cls-7" d="M312.13,300.77h0a33.28,33.28,0,0,0,39.94,8.08l3.94-2Z" transform="translate(-0.01)"/><path class="cls-9" d="M375.16,296.6a8.31,8.31,0,0,0-11.73-.68,8.52,8.52,0,0,0-1,1.07l-18.29-5.14-5.83,10.36,25.93,6.89a8.36,8.36,0,0,0,10.93-12.5Z" transform="translate(-0.01)"/><path class="cls-8" d="M331.52,308.09c-8.7,0-20.46-5.09-34.43-15a6.84,6.84,0,0,1-2.88-4.69c-1-6.52,5.34-15.35,6-16.19l6.7-18.38c.07-.3,2.23-8.25,7.64-11.08a8.91,8.91,0,0,1,7.42-.32c10.31,3.76,2.26,32.76,1.15,36.56l13.67,6.43,8.68,5.54,11.88,1.24-3.23,14.93-18,.41A18.61,18.61,0,0,1,331.52,308.09Z" transform="translate(-0.01)"/><path class="cls-8" d="M364.2,197c-1.45,1.89-6.44,3.55-12.37,4.9,0-.12,0-.25,0-.37a25.79,25.79,0,0,0-.71-5.6,16.69,16.69,0,0,1-2.54,6.29c-.09.15-.19.29-.29.43-5.09,1-10.47,1.78-14.69,2.3,2.9,10.45,14,19,12.81,25.37l-32.57,6.65a25.73,25.73,0,0,0-.63-7.87,16.89,16.89,0,0,1-4.72,9l-2.77.57-.82-4.07c-7.15-17.16,2.81-34.74,19.13-43.82a19.82,19.82,0,0,1,12.57-8.44l4.07-.83A19.92,19.92,0,0,1,364.2,197Z" transform="translate(-0.01)"/><path class="cls-4" d="M457.93,551.74H229.54a1.19,1.19,0,0,1,0-2.38H457.93a1.19,1.19,0,0,1,0,2.38Z" transform="translate(-0.01)"/></svg>