<svg width="158" height="20" viewBox="0 0 158 20" fill="none" xmlns="http://www.w3.org/2000/svg">
<path d="M16.56 1.29001L10.94 19.17H5.62L0 1.29001H4.18L8.28 15.14L12.38 1.29001H16.56Z" fill="white"/>
<path d="M29.16 13.62H19.94C20.0113 14.3964 20.3821 15.1146 20.9739 15.6223C21.5656 16.13 22.3317 16.3875 23.11 16.34C23.6495 16.3662 24.1861 16.2462 24.6631 15.9927C25.1401 15.7393 25.5398 15.3618 25.82 14.9L28.71 16.27C27.91 18.19 25.71 19.46 23.06 19.46C22.15 19.4907 21.2434 19.334 20.3965 18.9995C19.5497 18.665 18.7806 18.1599 18.1373 17.5156C17.4939 16.8712 16.9899 16.1015 16.6566 15.2541C16.3234 14.4068 16.1679 13.5 16.2 12.59C16.1675 11.703 16.3152 10.8186 16.6339 9.99027C16.9527 9.1619 17.436 8.4067 18.0547 7.77027C18.6733 7.13383 19.4146 6.62936 20.2336 6.28729C21.0526 5.94522 21.9324 5.77265 22.82 5.78C23.6743 5.76392 24.5231 5.91932 25.3162 6.23701C26.1094 6.5547 26.8308 7.02823 27.4377 7.62959C28.0447 8.23095 28.5249 8.94792 28.8499 9.7381C29.1749 10.5283 29.3382 11.3756 29.33 12.23C29.3441 12.6993 29.2868 13.168 29.16 13.62ZM25.51 11C25.4538 10.3384 25.1408 9.72518 24.638 9.29156C24.1352 8.85793 23.4826 8.63841 22.82 8.68C22.1475 8.65467 21.4891 8.87682 20.9693 9.30438C20.4496 9.73194 20.1048 10.3352 20 11H25.51Z" fill="white"/>
<path d="M42.77 10.74V19.17H39.17V11.51C39.17 10.8735 38.9171 10.263 38.4671 9.81295C38.017 9.36286 37.4065 9.11 36.77 9.11C36.1335 9.11 35.523 9.36286 35.0729 9.81295C34.6229 10.263 34.37 10.8735 34.37 11.51V19.17H30.77V6.06H34.13V7.65C34.5027 7.02358 35.0452 6.51551 35.6947 6.18457C36.3442 5.85364 37.0741 5.71337 37.8 5.78C38.4617 5.74243 39.1238 5.84491 39.7431 6.08074C40.3625 6.31658 40.9251 6.68046 41.3942 7.1486C41.8633 7.61674 42.2283 8.17861 42.4653 8.79748C42.7024 9.41634 42.8062 10.0783 42.77 10.74Z" fill="white"/>
<path d="M46.22 14.44V9.18001H44V6.06H44.17C44.4454 6.09949 44.7261 6.07567 44.9909 5.99036C45.2557 5.90504 45.4976 5.76048 45.6981 5.56766C45.8987 5.37483 46.0526 5.13883 46.1482 4.87758C46.2439 4.61633 46.2787 4.33672 46.25 4.06V2.13H49.85V6.06H52.9V9.18001H49.82V14.44C49.82 15.78 50.54 16.44 52.06 16.44C52.3413 16.4364 52.622 16.413 52.9 16.37V19.2C52.3438 19.2823 51.7822 19.3224 51.22 19.32C48.05 19.31 46.22 17.51 46.22 14.44Z" fill="white"/>
<path d="M54.58 1.29001H58.18V4.89001H54.58V1.29001ZM54.58 6.06001H58.18V19.17H54.58V6.06001Z" fill="white"/>
<path d="M59.86 12.59C59.846 11.6816 60.0165 10.7799 60.3614 9.93938C60.7062 9.09889 61.2182 8.33718 61.8661 7.70042C62.5141 7.06366 63.2846 6.56512 64.131 6.23501C64.9774 5.9049 65.882 5.7501 66.79 5.78C68.1032 5.70738 69.4053 6.05631 70.5063 6.77589C71.6072 7.49547 72.4494 8.54803 72.91 9.78L69.84 11.3C69.6629 10.6415 69.2723 10.0603 68.7293 9.64771C68.1864 9.23509 67.5219 9.01431 66.84 9.02C64.95 9.02 63.63 10.5 63.63 12.62C63.63 14.74 64.95 16.22 66.84 16.22C67.5219 16.2257 68.1864 16.0049 68.7293 15.5923C69.2723 15.1797 69.6629 14.5985 69.84 13.94L72.91 15.45C72.4455 16.6793 71.6023 17.7291 70.5023 18.4481C69.4023 19.167 68.1024 19.5179 66.79 19.45C65.8796 19.473 64.9739 19.3118 64.1273 18.9761C63.2808 18.6404 62.5107 18.1371 61.8635 17.4964C61.2163 16.8557 60.7052 16.0908 60.3609 15.2477C60.0166 14.4046 59.8462 13.5006 59.86 12.59Z" fill="white"/>
<path d="M78.07 14.44L81.19 13C81.526 13.9191 82.1273 14.7177 82.9178 15.2945C83.7083 15.8714 84.6522 16.2004 85.63 16.24C87.46 16.24 88.54 15.4 88.54 14.34C88.54 13.28 87.89 12.9 86.83 12.56L83.18 11.41C80.13 10.41 78.69 8.72 78.69 6.35C78.69 3.14 81.26 1 85.13 1C86.6348 0.931258 88.1239 1.33101 89.392 2.14414C90.66 2.95728 91.6446 4.14376 92.21 5.54L89.09 7C88.8188 6.16462 88.2801 5.44172 87.5572 4.9429C86.8343 4.44409 85.9673 4.19708 85.09 4.24C83.46 4.24 82.38 5.08 82.38 6.18C82.42 7 83 7.65 84.19 8L87.74 9.1C90.74 10.04 92.26 11.65 92.26 14.1C92.26 17.32 89.62 19.46 85.63 19.46C84.0003 19.5333 82.3896 19.0865 81.0306 18.184C79.6716 17.2816 78.6348 15.9704 78.07 14.44Z" fill="white"/>
<path d="M95.47 14.44V9.18001H93.21V6.06H93.38C93.6561 6.10118 93.938 6.07863 94.2041 5.99407C94.4702 5.90952 94.7134 5.7652 94.9151 5.57218C95.1168 5.37915 95.2717 5.14253 95.3679 4.88042C95.4641 4.61832 95.499 4.33769 95.47 4.06V2.13H99.07V6.06H102.14V9.18001H99.07V14.44C99.07 15.78 99.79 16.44 101.3 16.44C101.581 16.4372 101.862 16.4138 102.14 16.37V19.2C101.584 19.2826 101.022 19.3228 100.46 19.32C97.29 19.31 95.47 17.51 95.47 14.44Z" fill="white"/>
<path d="M115.58 6.06V19.17H112.22V17.59C111.852 18.2043 111.32 18.7044 110.685 19.0345C110.049 19.3647 109.334 19.512 108.62 19.46C105.62 19.46 103.62 17.25 103.62 14.03V6.03H107.22V13.69C107.22 14.0052 107.282 14.3173 107.403 14.6084C107.523 14.8996 107.7 15.1642 107.923 15.3871C108.146 15.6099 108.41 15.7867 108.702 15.9073C108.993 16.0279 109.305 16.09 109.62 16.09C109.935 16.09 110.247 16.0279 110.538 15.9073C110.83 15.7867 111.094 15.6099 111.317 15.3871C111.54 15.1642 111.717 14.8996 111.837 14.6084C111.958 14.3173 112.02 14.0052 112.02 13.69V6.06H115.58Z" fill="white"/>
<path d="M131.28 1.29001V19.17H127.92V17.92C127.395 18.4381 126.769 18.8423 126.081 19.1072C125.392 19.3722 124.657 19.4923 123.92 19.46C123.029 19.4617 122.147 19.2846 121.326 18.9393C120.505 18.594 119.761 18.0875 119.139 17.4497C118.517 16.812 118.03 16.0559 117.705 15.2263C117.381 14.3967 117.226 13.5105 117.25 12.62C117.229 11.7319 117.385 10.8485 117.709 10.0215C118.033 9.19445 118.519 8.4404 119.139 7.80347C119.758 7.16653 120.498 6.65951 121.315 6.31207C122.133 5.96462 123.012 5.78374 123.9 5.78001C124.589 5.75172 125.277 5.85996 125.924 6.09852C126.571 6.33707 127.164 6.70122 127.67 7.17001V1.29001H131.28ZM127.68 12.62C127.722 12.1603 127.667 11.697 127.52 11.2596C127.372 10.8222 127.135 10.4203 126.824 10.0797C126.512 9.73902 126.133 9.46706 125.711 9.28117C125.288 9.09527 124.832 8.99951 124.37 9.00001C123.906 8.99765 123.447 9.09079 123.02 9.27363C122.594 9.45647 122.21 9.7251 121.892 10.0628C121.574 10.4005 121.329 10.8 121.172 11.2365C121.015 11.673 120.95 12.1371 120.98 12.6C120.948 13.0632 121.013 13.528 121.169 13.9651C121.325 14.4023 121.57 14.8024 121.889 15.1404C122.207 15.4785 122.592 15.747 123.019 15.9294C123.446 16.1117 123.906 16.2038 124.37 16.2C124.828 16.2015 125.282 16.1078 125.702 15.9249C126.123 15.7419 126.5 15.4737 126.811 15.1371C127.123 14.8006 127.36 14.403 127.51 13.9698C127.659 13.5365 127.717 13.0768 127.68 12.62V12.62Z" fill="white"/>
<path d="M133.68 1.29001H137.28V4.89001H133.68V1.29001ZM133.68 6.06001H137.28V19.17H133.68V6.06001Z" fill="white"/>
<path d="M139 12.62C138.968 11.2292 139.352 9.86038 140.101 8.68838C140.851 7.51639 141.933 6.59433 143.208 6.0399C144.484 5.48546 145.897 5.32381 147.265 5.57556C148.633 5.82732 149.895 6.48107 150.89 7.45336C151.885 8.42565 152.568 9.67239 152.851 11.0344C153.135 12.3965 153.006 13.8121 152.481 15.1005C151.956 16.3889 151.059 17.4918 149.905 18.2683C148.751 19.0447 147.391 19.4596 146 19.46C145.087 19.4869 144.178 19.3295 143.327 18.9973C142.476 18.6651 141.701 18.1649 141.047 17.5265C140.394 16.8881 139.876 16.1247 139.524 15.2817C139.173 14.4387 138.994 13.5334 139 12.62ZM149.3 12.62C149.335 12.1664 149.277 11.7103 149.127 11.2805C148.978 10.8507 148.741 10.4564 148.433 10.1224C148.124 9.78842 147.749 9.52191 147.332 9.33964C146.915 9.15737 146.465 9.06328 146.01 9.06328C145.555 9.06328 145.105 9.15737 144.688 9.33964C144.271 9.52191 143.896 9.78842 143.587 10.1224C143.279 10.4564 143.042 10.8507 142.893 11.2805C142.743 11.7103 142.685 12.1664 142.72 12.62C142.685 13.0736 142.743 13.5296 142.893 13.9595C143.042 14.3893 143.279 14.7836 143.587 15.1176C143.896 15.4516 144.271 15.7181 144.688 15.9003C145.105 16.0826 145.555 16.1767 146.01 16.1767C146.465 16.1767 146.915 16.0826 147.332 15.9003C147.749 15.7181 148.124 15.4516 148.433 15.1176C148.741 14.7836 148.978 14.3893 149.127 13.9595C149.277 13.5296 149.335 13.0736 149.3 12.62Z" fill="white"/>
<path d="M154.17 19.17V15.44H157.9V19.17H154.17Z" fill="url(#paint0_linear_0_4)"/>
<defs>
<linearGradient id="paint0_linear_0_4" x1="151.94" y1="17.31" x2="159.12" y2="17.31" gradientUnits="userSpaceOnUse">
<stop offset="0.2" stop-color="#9871B2"/>
<stop offset="0.56" stop-color="#F15F6A"/>
<stop offset="0.83" stop-color="#F68A5A"/>
<stop offset="1" stop-color="#FAA74F"/>
</linearGradient>
</defs>
</svg>
