<?xml version="1.0" encoding="utf-8"?>
<!-- Generator: Adobe Illustrator 25.2.3, SVG Export Plug-In . SVG Version: 6.00 Build 0)  -->
<svg version="1.1" id="Layer_1" xmlns="http://www.w3.org/2000/svg" xmlns:xlink="http://www.w3.org/1999/xlink" x="0px" y="0px"
	 viewBox="0 0 25 24" style="enable-background:new 0 0 25 24;" xml:space="preserve">
<style type="text/css">
	.st0{fill:#333333;}
</style>
<path class="st0" d="M24.5,17.9v4.7c0,0.3-0.1,0.7-0.4,0.9c-0.2,0.2-0.5,0.4-0.9,0.4c-0.6,0-1.1,0.1-1.4,0.1
	C10.1,24,0.5,14.4,0.5,2.7c0-0.4,0-0.8,0.1-1.4c0-0.3,0.2-0.7,0.4-0.9S1.6,0,1.9,0h4.7c0.2,0,0.3,0.1,0.4,0.2
	c0.1,0.1,0.2,0.3,0.2,0.4c0,0.3,0.1,0.6,0.1,0.7C7.6,3.2,8.2,5,9,6.7c0.1,0.3,0,0.6-0.2,0.8L5.9,9.5c1.8,4.1,5,7.4,9.1,9.1l2.1-2.9
	c0.1-0.1,0.2-0.2,0.3-0.2c0.1,0,0.3,0,0.4,0c1.7,0.8,3.5,1.3,5.3,1.6c0.2,0,0.4,0.1,0.7,0.1c0.2,0,0.3,0.1,0.4,0.2
	S24.5,17.7,24.5,17.9L24.5,17.9z"/>
</svg>
